<?xml version="1.0" encoding="UTF-8"?>
<svg version="1.1" viewBox="0 0 900 600" xmlns="http://www.w3.org/2000/svg">
<path d="m0 444 21.5-7.3c21.5-7.4 64.5-22 107.3-29.2 42.9-7.2 85.5-6.8 128.4 0.7 42.8 7.5 85.8 22.1 128.6 29 42.9 6.8 85.5 5.8 128.4 6 42.8 0.1 85.8 1.5 128.6-0.7 42.9-2.2 85.5-7.8 128.4-7.7 42.8 0.2 85.8 6.2 107.3 9.2l21.5 3v154h-21.5-107.3-128.4-128.6-128.4-128.6-128.4-107.3-21.5z" fill="#fa7268"/>
<path d="m0 443 21.5-5.7c21.5-5.6 64.5-17 107.3-10.8 42.9 6.2 85.5 29.8 128.4 35.8 42.8 6 85.8-5.6 128.6-18 42.9-12.3 85.5-25.3 128.4-24.3 42.8 1 85.8 16 128.6 18.7 42.9 2.6 85.5-7 128.4-6.2 42.8 0.8 85.8 12.2 107.3 17.8l21.5 5.7v145h-21.5-107.3-128.4-128.6-128.4-128.6-128.4-107.3-21.5z" fill="#ef5f67"/>
<path d="m0 483 21.5 1.5c21.5 1.5 64.5 4.5 107.3 7.8 42.9 3.4 85.5 7 128.4 0.2 42.8-6.8 85.8-24.2 128.6-25.2 42.9-1 85.5 14.4 128.4 22.5 42.8 8.2 85.8 9.2 128.6 5 42.9-4.1 85.5-13.5 128.4-15.8 42.8-2.3 85.8 2.3 107.3 4.7l21.5 2.3v115h-21.5-107.3-128.4-128.6-128.4-128.6-128.4-107.3-21.5z" fill="#e34c67"/>
<path d="m0 503 21.5 4.7c21.5 4.6 64.5 14 107.3 16.6 42.9 2.7 85.5-1.3 128.4-2.8 42.8-1.5 85.8-0.5 128.6-4.2 42.9-3.6 85.5-12 128.4-10.5 42.8 1.5 85.8 12.9 128.6 12.7 42.9-0.2 85.5-11.8 128.4-11.3 42.8 0.5 85.8 13.1 107.3 19.5l21.5 6.3v67h-21.5-107.3-128.4-128.6-128.4-128.6-128.4-107.3-21.5z" fill="#d53867"/>
<path d="m0 539h21.5c21.5 0 64.5 0 107.3 4.2 42.9 4.1 85.5 12.5 128.4 14.3 42.8 1.8 85.8-2.8 128.6-9.5 42.9-6.7 85.5-15.3 128.4-16.8 42.8-1.5 85.8 4.1 128.6 12.3 42.9 8.2 85.5 18.8 128.4 19.3 42.8 0.5 85.8-9.1 107.3-14l21.5-4.8v57h-21.5-107.3-128.4-128.6-128.4-128.6-128.4-107.3-21.5z" fill="#c62368"/>
</svg>
